<svg width="17" height="16" viewBox="0 0 17 16" fill="none" xmlns="http://www.w3.org/2000/svg">
<path d="M8.50004 11.3333C8.68893 11.3333 8.84726 11.2695 8.97504 11.1417C9.10282 11.0139 9.16671 10.8556 9.16671 10.6667C9.16671 10.4778 9.10282 10.3195 8.97504 10.1917C8.84726 10.0639 8.68893 10 8.50004 10C8.31115 10 8.15282 10.0639 8.02504 10.1917C7.89726 10.3195 7.83337 10.4778 7.83337 10.6667C7.83337 10.8556 7.89726 11.0139 8.02504 11.1417C8.15282 11.2695 8.31115 11.3333 8.50004 11.3333ZM8.50004 8.66668C8.68893 8.66668 8.84726 8.60279 8.97504 8.47501C9.10282 8.34723 9.16671 8.1889 9.16671 8.00001V5.33334C9.16671 5.14445 9.10282 4.98612 8.97504 4.85834C8.84726 4.73057 8.68893 4.66668 8.50004 4.66668C8.31115 4.66668 8.15282 4.73057 8.02504 4.85834C7.89726 4.98612 7.83337 5.14445 7.83337 5.33334V8.00001C7.83337 8.1889 7.89726 8.34723 8.02504 8.47501C8.15282 8.60279 8.31115 8.66668 8.50004 8.66668ZM8.50004 14.6667C7.57782 14.6667 6.71115 14.4917 5.90004 14.1417C5.08893 13.7917 4.38337 13.3167 3.78337 12.7167C3.18337 12.1167 2.70837 11.4111 2.35837 10.6C2.00837 9.7889 1.83337 8.92223 1.83337 8.00001C1.83337 7.07779 2.00837 6.21112 2.35837 5.40001C2.70837 4.5889 3.18337 3.88334 3.78337 3.28334C4.38337 2.68334 5.08893 2.20834 5.90004 1.85834C6.71115 1.50834 7.57782 1.33334 8.50004 1.33334C9.42226 1.33334 10.2889 1.50834 11.1 1.85834C11.9112 2.20834 12.6167 2.68334 13.2167 3.28334C13.8167 3.88334 14.2917 4.5889 14.6417 5.40001C14.9917 6.21112 15.1667 7.07779 15.1667 8.00001C15.1667 8.92223 14.9917 9.7889 14.6417 10.6C14.2917 11.4111 13.8167 12.1167 13.2167 12.7167C12.6167 13.3167 11.9112 13.7917 11.1 14.1417C10.2889 14.4917 9.42226 14.6667 8.50004 14.6667Z" fill="#E61E32"/>
</svg>
